<?xml version="1.0" encoding="UTF-8"?>
<!DOCTYPE svg PUBLIC "-//W3C//DTD SVG 1.1//EN" "http://www.w3.org/Graphics/SVG/1.1/DTD/svg11.dtd">
<svg xmlns="http://www.w3.org/2000/svg" version="1.1" width="521px" height="545px" style="shape-rendering:geometricPrecision; text-rendering:geometricPrecision; image-rendering:optimizeQuality; fill-rule:evenodd; clip-rule:evenodd" xmlns:xlink="http://www.w3.org/1999/xlink">
<g><path style="opacity:1" fill="#72b8fe" d="M 13.5,-0.5 C 182.5,-0.5 351.5,-0.5 520.5,-0.5C 520.5,60.1667 520.5,120.833 520.5,181.5C 515.833,181.5 511.167,181.5 506.5,181.5C 341.999,181.833 177.666,181.5 13.5,180.5C 13.5,120.167 13.5,59.8333 13.5,-0.5 Z"/></g>
<g><path style="opacity:1" fill="#f8fbff" d="M 106.5,36.5 C 118.526,36.3448 129.526,39.5115 139.5,46C 145.688,52.2121 148.688,59.7121 148.5,68.5C 146.5,68.5 144.5,68.5 142.5,68.5C 141.503,54.6859 134.169,46.5192 120.5,44C 113.5,43.3333 106.5,43.3333 99.5,44C 85.7471,47.7436 80.2471,56.577 83,70.5C 84.0608,73.5616 85.8941,76.0616 88.5,78C 92.9447,80.5567 97.6113,82.5567 102.5,84C 116.091,85.6472 129.091,89.3139 141.5,95C 152.728,105.251 154.562,117.084 147,130.5C 135.871,141.937 122.371,146.104 106.5,143C 84.4528,140.787 73.4528,128.621 73.5,106.5C 75.5,106.5 77.5,106.5 79.5,106.5C 78.5043,122.004 85.5043,131.837 100.5,136C 113.073,139.01 125.073,137.677 136.5,132C 144.29,126.03 147.123,118.196 145,108.5C 140.434,100.621 133.601,95.7873 124.5,94C 110.905,92.3497 97.9054,88.683 85.5,83C 77.048,75.7202 74.2147,66.5535 77,55.5C 83.1973,43.4866 93.0306,37.1533 106.5,36.5 Z"/></g>
<g><path style="opacity:1" fill="#f9fcff" d="M 254.5,37.5 C 284.51,34.0711 303.677,46.7378 312,75.5C 316.283,95.9615 311.95,114.295 299,130.5C 286.562,141.532 272.062,145.698 255.5,143C 234.601,138.433 222.101,125.6 218,104.5C 213.186,82.2382 218.686,63.0715 234.5,47C 240.616,42.4399 247.282,39.2732 254.5,37.5 Z"/></g>
<g><path style="opacity:1" fill="#daecff" d="M 432.5,40.5 C 416.167,40.5 399.833,40.5 383.5,40.5C 383.5,73.8333 383.5,107.167 383.5,140.5C 382.502,107.004 382.168,73.3375 382.5,39.5C 399.342,39.1702 416.008,39.5035 432.5,40.5 Z"/></g>
<g><path style="opacity:1" fill="#fcfdff" d="M 432.5,40.5 C 451.598,43.3353 459.431,54.3353 456,73.5C 453.067,83.4336 446.567,89.6002 436.5,92C 445.608,93.1103 451.774,97.9436 455,106.5C 455.895,117.882 457.062,129.215 458.5,140.5C 456.167,140.5 453.833,140.5 451.5,140.5C 449.797,130.306 448.964,119.973 449,109.5C 446.403,101.599 440.903,97.0989 432.5,96C 417.837,95.5001 403.17,95.3334 388.5,95.5C 388.5,110.5 388.5,125.5 388.5,140.5C 386.833,140.5 385.167,140.5 383.5,140.5C 383.5,107.167 383.5,73.8333 383.5,40.5C 399.833,40.5 416.167,40.5 432.5,40.5 Z"/></g>
<g><path style="opacity:1" fill="#72b8ff" d="M 255.5,43.5 C 281.559,40.6012 298.392,51.6012 306,76.5C 310.528,97.575 305.028,115.408 289.5,130C 277.772,137.51 265.105,139.51 251.5,136C 234.428,128.909 224.928,116.075 223,97.5C 220.434,79.6196 225.601,64.4529 238.5,52C 243.727,48.0532 249.393,45.2198 255.5,43.5 Z"/></g>
<g><path style="opacity:1" fill="#73b8ff" d="M 388.5,45.5 C 402.504,45.3334 416.504,45.5001 430.5,46C 450.054,50.6109 455.554,62.1109 447,80.5C 442.682,85.5758 437.182,88.4092 430.5,89C 416.504,89.4999 402.504,89.6666 388.5,89.5C 388.5,74.8333 388.5,60.1667 388.5,45.5 Z"/></g>
<g><path style="opacity:0.999" fill="#629fdd" d="M -0.5,181.5 C 168.518,188.37 337.518,195.704 506.5,203.5C 506.5,256.833 506.5,310.167 506.5,363.5C 464.167,363.5 421.833,363.5 379.5,363.5C 378.609,362.89 377.609,362.557 376.5,362.5C 259.999,362.167 143.665,362.5 27.5,363.5C 18.1667,363.5 8.83333,363.5 -0.5,363.5C -0.5,302.833 -0.5,242.167 -0.5,181.5 Z"/></g>
<g><path style="opacity:1" fill="#588fc6" d="M -0.5,181.5 C -0.5,181.167 -0.5,180.833 -0.5,180.5C 4.16667,180.5 8.83333,180.5 13.5,180.5C 177.666,181.5 341.999,181.833 506.5,181.5C 506.5,188.833 506.5,196.167 506.5,203.5C 337.518,195.704 168.518,188.37 -0.5,181.5 Z"/></g>
<g><path style="opacity:1" fill="#fefefe" d="M 60.5,221.5 C 86.5,221.5 112.5,221.5 138.5,221.5C 138.5,223.5 138.5,225.5 138.5,227.5C 126.5,227.5 114.5,227.5 102.5,227.5C 102.5,259.167 102.5,290.833 102.5,322.5C 100.5,322.5 98.5,322.5 96.5,322.5C 96.5,290.833 96.5,259.167 96.5,227.5C 84.5,227.5 72.5,227.5 60.5,227.5C 60.5,225.5 60.5,223.5 60.5,221.5 Z"/></g>
<g><path style="opacity:1" fill="#fafcfe" d="M 247.5,221.5 C 250.167,221.5 252.833,221.5 255.5,221.5C 268.304,255.245 281.304,288.912 294.5,322.5C 292.167,322.5 289.833,322.5 287.5,322.5C 283.707,311.791 279.707,301.125 275.5,290.5C 259.18,289.501 242.847,289.167 226.5,289.5C 222.5,300.5 218.5,311.5 214.5,322.5C 212.167,322.5 209.833,322.5 207.5,322.5C 220.55,288.732 233.883,255.065 247.5,221.5 Z"/></g>
<g><path style="opacity:1" fill="#f9fbfd" d="M 364.5,221.5 C 382.537,221.1 400.537,221.6 418.5,223C 433.02,228.53 438.853,239.03 436,254.5C 432.824,262.509 426.99,267.342 418.5,269C 439.333,276.522 444.833,290.356 435,310.5C 430.567,315.635 425.067,319.135 418.5,321C 400.537,322.4 382.537,322.9 364.5,322.5C 364.5,288.833 364.5,255.167 364.5,221.5 Z"/></g>
<g><path style="opacity:1" fill="#629fdd" d="M 370.5,227.5 C 385.883,227.082 401.216,227.582 416.5,229C 430.746,234.119 434.579,243.619 428,257.5C 424.361,261.734 419.861,264.568 414.5,266C 399.837,266.5 385.17,266.667 370.5,266.5C 370.5,253.5 370.5,240.5 370.5,227.5 Z"/></g>
<g><path style="opacity:1" fill="#64a0dd" d="M 272.5,282.5 C 258.343,283.496 244.01,283.829 229.5,283.5C 236.438,265.022 243.771,246.688 251.5,228.5C 258.896,246.357 265.896,264.357 272.5,282.5 Z"/></g>
<g><path style="opacity:1" fill="#639fdd" d="M 370.5,272.5 C 382.505,272.333 394.505,272.5 406.5,273C 414.955,272.707 422.455,275.207 429,280.5C 434.198,288.409 434.865,296.743 431,305.5C 426.211,311.981 419.711,315.481 411.5,316C 397.837,316.5 384.171,316.667 370.5,316.5C 370.5,301.833 370.5,287.167 370.5,272.5 Z"/></g>
<g><path style="opacity:1" fill="#b2cfee" d="M 272.5,282.5 C 273.043,282.56 273.376,282.893 273.5,283.5C 258.672,284.826 244.005,284.826 229.5,283.5C 244.01,283.829 258.343,283.496 272.5,282.5 Z"/></g>
<g><path style="opacity:0.997" fill="#578dc5" d="M 376.5,362.5 C 377.609,362.557 378.609,362.89 379.5,363.5C 379.5,423.833 379.5,484.167 379.5,544.5C 262.167,544.5 144.833,544.5 27.5,544.5C 27.5,492.5 27.5,440.5 27.5,388.5C 143.976,379.776 260.309,371.109 376.5,362.5 Z"/></g>
<g><path style="opacity:0.999" fill="#4e7fb1" d="M 376.5,362.5 C 260.309,371.109 143.976,379.776 27.5,388.5C 27.5,380.167 27.5,371.833 27.5,363.5C 143.665,362.5 259.999,362.167 376.5,362.5 Z"/></g>
<g><path style="opacity:1" fill="#f8fafc" d="M 104.5,403.5 C 106.5,403.5 108.5,403.5 110.5,403.5C 110.5,435.167 110.5,466.833 110.5,498.5C 129.5,498.5 148.5,498.5 167.5,498.5C 167.5,500.5 167.5,502.5 167.5,504.5C 146.5,504.5 125.5,504.5 104.5,504.5C 104.5,470.833 104.5,437.167 104.5,403.5 Z"/></g>
<g><path style="opacity:1" fill="#fbfcfd" d="M 301.5,498.5 C 301.5,500.167 301.5,501.833 301.5,503.5C 278.833,503.5 256.167,503.5 233.5,503.5C 233.5,470.167 233.5,436.833 233.5,403.5C 256.167,403.5 278.833,403.5 301.5,403.5C 301.5,405.5 301.5,407.5 301.5,409.5C 280.833,409.5 260.167,409.5 239.5,409.5C 239.5,422.5 239.5,435.5 239.5,448.5C 258.833,448.5 278.167,448.5 297.5,448.5C 297.5,450.5 297.5,452.5 297.5,454.5C 278.167,454.5 258.833,454.5 239.5,454.5C 239.5,469.167 239.5,483.833 239.5,498.5C 260.167,498.5 280.833,498.5 301.5,498.5 Z"/></g>
<g><path style="opacity:1" fill="#d4e2f0" d="M 301.5,498.5 C 302.461,500.265 302.795,502.265 302.5,504.5C 279.327,504.831 256.327,504.498 233.5,503.5C 256.167,503.5 278.833,503.5 301.5,503.5C 301.5,501.833 301.5,500.167 301.5,498.5 Z"/></g>
</svg>
